<svg width="69" height="68" viewBox="0 0 69 68" fill="none" xmlns="http://www.w3.org/2000/svg">
<rect y="48" width="28" height="20" rx="10" transform="rotate(-90 0 48)" fill="#410100"/>
<path d="M10 20C4.47715 20 0 15.5228 0 10V10C0 4.47715 4.47715 -5.96046e-08 10 -5.96046e-08V-5.96046e-08C15.5228 -5.96046e-08 20 4.47715 20 10V10C20 15.5228 15.5228 20 10 20V20Z" fill="#410100"/>
<rect x="49" y="20" width="20" height="20" rx="10" transform="rotate(-90 49 20)" fill="#410100"/>
<rect x="49" y="68" width="20" height="20" rx="10" transform="rotate(-90 49 68)" fill="#410100"/>
<rect y="68" width="20" height="20" rx="10" transform="rotate(-90 0 68)" fill="#410100"/>
<rect x="49" y="48" width="28" height="20" rx="10" transform="rotate(-90 49 48)" fill="#410100"/>
<rect x="20" width="29" height="20" rx="10" fill="#410100"/>
<rect x="20" y="48" width="29" height="20" rx="10" fill="#410100"/>
</svg>
